<svg width="300" height="179" viewBox="0 0 300 179" fill="none" xmlns="http://www.w3.org/2000/svg">
<path d="M237.242 93.2274C128.858 91.7915 137.446 118.703 155.287 132.338C157.914 141.115 183.057 136.227 195.301 132.686C197.277 129.252 204.753 121.808 218.842 119.501C232.932 117.193 230.726 114.29 227.862 113.127C248.799 107.586 239.668 106.092 232.485 106.038C293.969 98.9424 257.588 93.2284 237.242 93.2274Z" fill="#D9D9D9"/>
<path d="M240.031 94.0703C129.628 93.8357 139.372 120.808 158.045 134.324C161.046 143.123 186.464 137.926 198.798 134.227C200.682 130.752 208.016 123.181 222.275 120.702C236.534 118.224 234.181 115.329 231.221 114.191C252.332 108.384 242.979 106.983 235.664 107.009C288.872 96.1156 260.746 93.8443 240.031 94.0703Z" fill="url(#paint0_linear_9614_321)"/>
<line x1="1.5" y1="-1.5" x2="19.5924" y2="-1.5" transform="matrix(-0.928008 0.38124 0.477865 0.873688 146.605 146.009)" stroke="#FF6B0A" stroke-width="3" stroke-linecap="round"/>
<path d="M119.417 157.065L127.039 152.491" stroke="#FF6B0A" stroke-width="3" stroke-linecap="round"/>
<path d="M120.961 152.994L127 152.151" stroke="#FF6B0A" stroke-width="3" stroke-linecap="round"/>
<path d="M122.491 159.358L127.744 152.526" stroke="#FF6B0A" stroke-width="3" stroke-linecap="round"/>
<path d="M76.0394 92.4308C184.525 88.9516 174.823 116.035 156.412 130.012C153.422 138.842 128.47 134.426 116.368 131.114C114.533 127.717 107.362 120.411 93.3622 118.367C79.3624 116.324 81.6889 113.379 84.6022 112.162C63.8854 107.013 73.0821 105.346 80.2701 105.157C19.0543 99.2172 55.6863 92.8153 76.0394 92.4308Z" fill="#D9D9D9"/>
<path d="M73.0602 94.5482C183.517 92.2327 172.654 119.399 153.416 133.272C150.052 142.131 124.838 137.411 112.652 133.944C110.911 130.502 103.886 123.067 89.7239 120.856C75.5613 118.645 78.0357 115.705 81.0432 114.511C60.1638 109.099 69.578 107.522 76.895 107.41C24.116 97.5147 52.3472 94.7125 73.0602 94.5482Z" fill="url(#paint1_linear_9614_321)"/>
<path d="M191.348 117.001C188.254 135.695 159.351 166.07 68.487 138.027C109.333 119.264 191.09 88.791 191.348 117.001Z" fill="url(#paint2_linear_9614_321)"/>
<path d="M181.766 79.5183C187.066 71.3413 193.785 73.1311 196.483 75.0482C196.727 77.7102 199.731 85.7179 196.893 82.6902C194.055 79.6625 189.926 83.9015 188.215 86.3994C178.178 117.762 156.671 118.302 148.785 116.372C146.411 109.516 144.012 97.0158 153.417 101.863C165.173 107.922 175.14 89.7394 181.766 79.5183Z" fill="white"/>
<ellipse rx="6.43635" ry="28.7997" transform="matrix(0.395128 0.918626 -0.949885 0.3126 152.864 137.752)" fill="url(#paint3_radial_9614_321)"/>
<line x1="1.5" y1="-1.5" x2="19.8638" y2="-1.5" transform="matrix(-0.967974 0.259287 0.323553 0.943211 135.736 145.915)" stroke="#FF6B0A" stroke-width="3" stroke-linecap="round"/>
<path d="M107.275 154.246L115.449 150.439" stroke="#FF6B0A" stroke-width="3" stroke-linecap="round"/>
<path d="M109.365 150.342L115.459 150.096" stroke="#FF6B0A" stroke-width="3" stroke-linecap="round"/>
<path d="M110.004 156.835L116.142 150.543" stroke="#FF6B0A" stroke-width="3" stroke-linecap="round"/>
<path d="M211.774 71.6522C203.296 84.5487 195.017 84.4125 191.938 82.7323C179.455 83.2791 170.451 66.3783 186.232 57.5637C202.012 48.7491 222.371 55.5316 211.774 71.6522Z" fill="white"/>
<path d="M200.206 71.9756L201.318 69.9929C203.561 65.9925 207.322 62.8631 211.985 61.1167C212.282 61.0057 212.635 61.067 212.881 61.2722L225.462 71.7489C226.938 72.9783 225.985 75.0803 224.013 74.9458L201.157 73.3872C200.372 73.3336 199.866 72.5824 200.206 71.9756Z" fill="#DF5B04"/>
<path d="M199.836 72.0236L200.685 70.567C203.158 66.321 207.183 62.986 212.147 61.0689C212.357 60.9878 212.599 60.9835 212.822 61.0568L228.766 66.2848C230.855 66.9697 230.703 69.6121 228.559 69.892L201.054 73.4824C200.147 73.6008 199.423 72.7338 199.836 72.0236Z" fill="#FF6B0A"/>
<ellipse rx="1.86572" ry="1.66542" transform="matrix(-0.869526 0.485696 0.580251 0.817895 209.485 57.5423)" fill="#797979"/>
<ellipse rx="1.86572" ry="1.66542" transform="matrix(-0.869526 0.485696 0.580251 0.817895 193.786 68.2133)" fill="#797979"/>
<path d="M203.108 44.6486L202.243 43.3911L173.734 56.928L178.429 63.7472L179.431 63.2715L203.459 52.8816L206.937 50.2103L203.674 45.4702L203.818 45.415L203.536 44.497L203.108 44.6486Z" fill="#373500"/>
<ellipse rx="16.1147" ry="0.935466" transform="matrix(-0.909928 0.432066 0.56548 0.82137 188.88 51.4593)" fill="#0C0632"/>
<path d="M207.282 50.0757C217.397 46.8946 229.012 51.0486 186.098 61.7562L207.282 50.0757Z" fill="#373500"/>
<path d="M207.334 49.9886C206.527 53.2163 181.975 64.7124 177.997 63.9187L174.252 58.4246C178.81 57.2084 186.091 52.1008 193.142 50.3744L203.17 51.8038L203.537 44.4967L207.334 49.9886Z" fill="#494600"/>
<ellipse rx="15.6619" ry="0.935466" transform="matrix(-0.909928 0.432066 0.56548 0.82137 188.057 50.2541)" fill="#373500"/>
<ellipse rx="15.8822" ry="0.935466" transform="matrix(-0.909928 0.432066 0.56548 0.82137 188.669 51.5598)" fill="#373500"/>
<path d="M176.734 30.4332C176.711 30.4664 176.69 30.4932 176.677 30.5199C176.556 30.7398 176.558 30.9218 176.719 31.0964C176.788 31.1704 176.875 31.2386 176.952 31.3082C177.02 31.3695 177.088 31.4298 177.154 31.4923C177.171 31.5087 177.184 31.5125 177.222 31.4968C177.299 31.4622 177.386 31.4462 177.466 31.4641C177.537 31.4791 177.569 31.513 177.567 31.5573C177.566 31.6025 177.523 31.6426 177.46 31.6768C177.428 31.6935 177.397 31.6985 177.359 31.6932C177.063 31.6556 176.812 31.5812 176.595 31.4743C176.417 31.3853 176.281 31.2741 176.139 31.1684C176.057 31.1085 175.969 31.0497 175.892 30.9876C175.842 30.9489 175.788 30.9156 175.716 30.8901C175.644 30.8646 175.561 30.85 175.464 30.8483C175.449 30.9045 175.46 30.9557 175.498 30.9989C175.535 31.039 175.584 31.0767 175.631 31.1112C175.684 31.1487 175.747 31.1808 175.802 31.2151C175.949 31.306 176.098 31.3957 176.238 31.4899C176.47 31.648 176.605 31.838 176.637 32.0603C176.642 32.0896 176.62 32.1102 176.576 32.1292C176.467 32.1784 176.334 32.1808 176.266 32.1352C176.202 32.0927 176.224 32.0132 176.322 31.9591C176.357 31.9392 176.35 31.932 176.325 31.9201C176.195 31.8561 176.066 31.7901 175.939 31.725C175.792 31.652 175.656 31.5735 175.465 31.5322C175.213 31.4778 174.967 31.481 174.67 31.5245C174.649 31.5282 174.628 31.532 174.598 31.537C174.611 31.5461 174.62 31.5522 174.629 31.5582C175.214 31.9502 175.775 32.3259 176.359 32.7178C176.392 32.7401 176.392 32.7401 176.438 32.7168C176.607 32.6292 176.779 32.5406 176.949 32.453C176.979 32.4375 176.998 32.4349 177.025 32.4458C177.235 32.5276 177.484 32.5569 177.77 32.5273C177.83 32.5215 177.892 32.522 177.953 32.5194C177.971 32.4169 178.052 32.3106 178.041 32.2067C178.032 32.1217 178.006 32.0403 177.942 31.9694C177.929 31.9529 177.935 31.9422 177.961 31.9289C178.135 31.8391 178.307 31.7505 178.481 31.6607C178.511 31.6452 178.52 31.6355 178.495 31.6193C177.908 31.2253 177.343 30.8466 176.755 30.4526C176.756 30.4484 176.75 30.4443 176.734 30.4332ZM176.814 30.711C176.819 30.7098 176.826 30.7065 176.832 30.7053C176.842 30.7123 176.853 30.7194 176.863 30.7265C177.146 30.9159 177.406 31.0901 177.688 31.2795C177.735 31.3109 177.735 31.3109 177.666 31.3463C177.64 31.3596 177.623 31.3632 177.598 31.3544C177.517 31.3302 177.423 31.3285 177.325 31.3468C177.283 31.3542 177.265 31.3473 177.248 31.3309C177.163 31.2511 177.079 31.1691 176.987 31.0926C176.894 31.0119 176.846 30.9395 176.829 30.8358C176.819 30.794 176.819 30.7529 176.814 30.711ZM175.048 31.6273C175.052 31.625 175.053 31.6229 175.057 31.6207C175.082 31.6222 175.107 31.6236 175.13 31.6262C175.304 31.6437 175.444 31.6558 175.573 31.7167C175.735 31.7945 175.892 31.8746 176.052 31.9535C176.074 31.9635 176.08 31.9749 176.064 31.9953C176.022 32.0511 176.012 32.105 176.039 32.1569C176.052 32.1808 176.035 32.197 175.971 32.2208C175.932 32.2355 175.927 32.2167 175.914 32.2075C175.627 32.0151 175.362 31.8379 175.074 31.6445C175.062 31.6395 175.053 31.6334 175.048 31.6273ZM177.614 31.7444C177.623 31.7378 177.634 31.7301 177.646 31.7204C177.761 31.6364 177.819 31.5507 177.764 31.4627C177.757 31.4502 177.759 31.4417 177.78 31.4328C177.795 31.425 177.81 31.4173 177.825 31.4095C177.847 31.3984 177.861 31.398 177.876 31.4082C177.99 31.4841 178.104 31.5611 178.216 31.6382C178.222 31.6422 178.218 31.6602 178.209 31.6646C178.095 31.7255 177.977 31.7864 177.859 31.8453C177.851 31.8497 177.823 31.8515 177.815 31.8485C177.749 31.8145 177.683 31.7804 177.614 31.7444ZM176.694 32.2187C176.746 32.2637 176.793 32.3077 176.843 32.3516C176.858 32.3639 176.84 32.3727 176.823 32.3816C176.714 32.4381 176.605 32.4925 176.497 32.5501C176.462 32.5678 176.443 32.5673 176.422 32.551C176.323 32.482 176.22 32.4153 176.117 32.3464C176.07 32.315 176.07 32.315 176.137 32.2806C176.156 32.2707 176.173 32.2618 176.196 32.2696C176.324 32.3094 176.465 32.2942 176.611 32.2493C176.641 32.2391 176.668 32.2268 176.694 32.2187ZM176.724 31.6982C176.9 31.7451 177.074 31.79 177.272 31.8133C177.237 31.8689 177.205 31.9213 177.169 31.9738C177.165 31.9813 177.14 31.9903 177.125 31.9928C177.045 32.0054 176.966 32.0138 176.886 32.0264C176.862 32.0302 176.85 32.0274 176.847 32.0127C176.834 31.9099 176.788 31.8154 176.733 31.7221C176.732 31.7137 176.727 31.7055 176.724 31.6982ZM177.737 32.0484C177.824 32.0966 177.863 32.2629 177.811 32.3126C177.808 32.3127 177.804 32.3128 177.804 32.3128C177.726 32.2602 177.645 32.2086 177.57 32.1559C177.564 32.1518 177.57 32.138 177.577 32.1325C177.628 32.1028 177.683 32.0761 177.737 32.0484ZM177.634 32.4078C177.504 32.4301 177.235 32.3772 177.189 32.3289C177.237 32.3045 177.288 32.2779 177.335 32.2535C177.363 32.2391 177.38 32.2397 177.398 32.2519C177.461 32.2944 177.525 32.337 177.588 32.3795C177.604 32.3875 177.617 32.3966 177.634 32.4078ZM177.542 32.0072C177.514 32.0216 177.486 32.0381 177.455 32.0505C177.446 32.0549 177.417 32.0557 177.414 32.0516C177.361 32.0003 177.363 31.9308 177.439 31.8742C177.455 31.8622 177.469 31.8586 177.487 31.8655C177.536 31.8884 177.583 31.9125 177.634 31.9364C177.651 31.9454 177.644 31.9561 177.625 31.9661C177.598 31.9784 177.57 31.9928 177.542 32.0072ZM177.147 32.2111C177.121 32.2244 177.097 32.2366 177.072 32.2499C177.047 32.2642 177.025 32.2669 177.009 32.2515C176.978 32.2229 176.947 32.1942 176.918 32.1645C176.904 32.1501 176.912 32.1404 176.944 32.1312C177.042 32.1002 177.177 32.104 177.238 32.1424C177.244 32.1465 177.24 32.1613 177.233 32.1668C177.204 32.1833 177.175 32.1967 177.147 32.2111Z" fill="#FFD500"/>
<ellipse rx="6.6609" ry="7.07073" transform="matrix(-0.748693 0.674395 0.778716 0.614307 194.491 70.0274)" fill="url(#paint4_radial_9614_321)"/>
<defs>
<linearGradient id="paint0_linear_9614_321" x1="199.045" y1="94.537" x2="206.163" y2="133.723" gradientUnits="userSpaceOnUse">
<stop stop-color="white"/>
<stop offset="1" stop-color="#F5F5F5"/>
</linearGradient>
<linearGradient id="paint1_linear_9614_321" x1="114.043" y1="94.2425" x2="107.53" y2="133.943" gradientUnits="userSpaceOnUse">
<stop stop-color="white"/>
<stop offset="1" stop-color="#F9F9F9"/>
</linearGradient>
<linearGradient id="paint2_linear_9614_321" x1="154.623" y1="110.862" x2="111.611" y2="151.927" gradientUnits="userSpaceOnUse">
<stop stop-color="white"/>
<stop offset="1" stop-color="#F5F5F5"/>
</linearGradient>
<radialGradient id="paint3_radial_9614_321" cx="0" cy="0" r="1" gradientUnits="userSpaceOnUse" gradientTransform="translate(6.43635 28.7997) rotate(90) scale(28.7997 6.43635)">
<stop stop-color="#E8E8E8"/>
<stop offset="1" stop-color="#EFEFEF" stop-opacity="0.5"/>
</radialGradient>
<radialGradient id="paint4_radial_9614_321" cx="0" cy="0" r="1" gradientUnits="userSpaceOnUse" gradientTransform="translate(6.6609 7.07073) rotate(90) scale(7.07073 6.6609)">
<stop stop-color="#FFBBBB"/>
<stop offset="1" stop-color="#FFBBBB" stop-opacity="0"/>
</radialGradient>
</defs>
</svg>
